<svg xmlns="http://www.w3.org/2000/svg" viewBox="0 0 200 200">
  <circle cx="100" cy="100" r="100" fill="#1428A0"/>
  <g fill="#ffffff">
    <!-- J: thick rounded with curved bottom hook -->
    <path d="M55 52 c0-5 4-9 9-9 c5 0 9 4 9 9 v58 c0 20-10 32-28 32 c-14 0-24-8-27-20 c-1-4 2-8 6-9 c4-1 8 1 9 5 c2 6 6 9 12 9 c10 0 10-8 10-17z"/>
    <!-- i dot -->
    <circle cx="93" cy="68" r="10"/>
    <!-- i body -->
    <path d="M84 86 c0-5 4-9 9-9 c5 0 9 4 9 9 v47 c0 5-4 9-9 9 c-5 0-9-4-9-9z"/>
    <!-- o -->
    <path d="M142 82 c21 0 36 16 36 33 c0 17-15 33-36 33 c-21 0-36-16-36-33 c0-17 15-33 36-33z M142 98 c-11 0-19 8-19 17 c0 9 8 17 19 17 c11 0 19-8 19-17 c0-9-8-17-19-17z"/>
  </g>
</svg>
