<svg xmlns="http://www.w3.org/2000/svg" viewBox="0 0 200 200">
  <circle cx="100" cy="100" r="100" fill="#0A2885"/>
  <g fill="#ffffff">
    <!-- J -->
    <path d="M62 68 h16 v52 c0 14-6 22-20 22 c-10 0-17-5-20-14 l13-6 c1.5 4 3.5 6 7 6 c5 0 4-4 4-10z"/>
    <!-- i dot -->
    <circle cx="96" cy="72" r="9"/>
    <!-- i body -->
    <rect x="88" y="86" width="16" height="54" rx="2"/>
    <!-- o -->
    <path d="M130 85 c18 0 30 13 30 28 c0 15-12 29-30 29 c-18 0-30-14-30-29 c0-15 12-28 30-28z M130 99 c-9 0-14 6-14 14 c0 8 5 15 14 15 c9 0 14-7 14-15 c0-8-5-14-14-14z"/>
  </g>
</svg>
