<svg xmlns="http://www.w3.org/2000/svg" viewBox="0 0 200 200">
  <circle cx="100" cy="100" r="100" fill="#0A2885"/>
  <g fill="#ffffff">
    <!-- J -->
    <path d="M48 65 h18 v55 c0 14-6 22-20 22 c-10 0-18-5-21-14 l13-7 c2 4 4 6 8 6 c4 0 2-3 2-9z"/>
    <!-- i dot -->
    <circle cx="90" cy="68" r="9"/>
    <!-- i body -->
    <rect x="82" y="84" width="16" height="56" rx="3"/>
    <!-- o -->
    <path d="M138 84 c19 0 32 14 32 29 c0 16-13 30-32 30 c-19 0-32-14-32-30 c0-15 13-29 32-29z M138 99 c-10 0-16 7-16 14 c0 8 6 15 16 15 c10 0 16-7 16-15 c0-7-6-14-16-14z"/>
  </g>
</svg>
